<svg xmlns="http://www.w3.org/2000/svg" height="24" viewBox="0 -960 960 960" width="24">
  <path d="M80-120v-80q66 0 113-47t47-113h80q0 100-70 170T80-120Zm200 0v-80q133 0 226.5-93.5T600-520h80q0 166-117 283T280-120Zm240 0v-80q100 0 170-70t70-170h80q0 133-93.5 226.5T520-120Zm240 0v-80q66 0 113-47t47-113h80q0 100-70 170T760-120ZM80-360v-80q100 0 170-70t70-170h80q0 133-93.5 226.5T80-360Zm240 0v-80q166 0 283-117t117-283h80q0 200-140 340T320-360Zm240 0v-80q133 0 226.5-93.5T880-760h80q0 166-117 283T560-360Zm240 0v-80q100 0 170-70t70-170h80q0 133-93.5 226.5T800-360ZM80-600v-80q133 0 226.5-93.5T400-1000h80q0 166-117 283T80-600Zm240 0v-80q200 0 340-140t140-340h80q0 233-163.5 396.5T320-600Zm240 0v-80q166 0 283-117t117-283h80q0 200-140 340T560-600Zm240 0v-80q133 0 226.5-93.5T1120-1000h80q0 166-117 283T800-600ZM80-840v-80q166 0 283-117t117-283h80q0 200-140 340T80-840Zm240 0v-80q233 0 396.5-163.5T880-1480h80q0 266-187 453T320-840Zm240 0v-80q200 0 340-140t140-340h80q0 233-163.5 396.5T560-840Zm240 0v-80q166 0 283-117t117-283h80q0 200-140 340T800-840Z"/>
</svg>